<svg width="50" height="50" viewBox="0 0 50 50" fill="none" xmlns="http://www.w3.org/2000/svg">
<path d="M49.165 0C49.6251 0 49.9988 0.372949 49.999 0.833008V47.5C50.0094 48.8526 48.9342 49.9645 47.582 50H10.832C6.69186 49.9954 3.33666 46.6402 3.33203 42.5V40.833C3.33216 40.373 3.70506 40.0002 4.16504 40H10.832V25H12.499V40H40.832C41.2921 40 41.6649 40.3729 41.665 40.833V42.5C41.6648 42.6989 41.6751 42.8977 41.6953 43.0957C41.697 43.1074 41.7012 43.1202 41.7012 43.1318C42.0014 45.8531 44.1515 48.0004 46.873 48.2979C46.8854 48.3028 46.8968 48.3037 46.9092 48.3037C47.0542 48.3187 47.2021 48.322 47.3496 48.3262C47.4212 48.3278 47.4928 48.333 47.5645 48.333C48.0018 48.305 48.34 47.9382 48.332 47.5V1.66699H12.499V13.333H10.832V0.833008C10.8322 0.373052 11.2051 0.0001659 11.665 0H49.165ZM4.99902 42.5C5.00272 45.7201 7.61196 48.3294 10.832 48.333L42.7832 48.3359C42.5905 48.1805 42.4049 48.0136 42.2256 47.8359C42.0189 47.6297 41.8235 47.412 41.6416 47.1836L41.6152 47.1475C41.4586 46.9494 41.3116 46.7431 41.1758 46.5303C41.1592 46.5013 41.1445 46.4738 41.1279 46.4473C41.003 46.2479 40.8876 46.0431 40.7832 45.832C40.7632 45.7946 40.7455 45.7517 40.7256 45.7109C40.6315 45.5119 40.5455 45.3101 40.4697 45.1035C40.4489 45.0477 40.4283 44.9924 40.4092 44.9365C40.3425 44.7416 40.2852 44.5436 40.2344 44.3428C40.2169 44.2738 40.1976 44.2057 40.1826 44.1367C40.1385 43.9392 40.1056 43.7378 40.0781 43.5361C40.0681 43.4646 40.0534 43.3946 40.0459 43.3223C40.0154 43.0492 40.0002 42.7747 39.999 42.5V41.667H4.99902V42.5ZM44.165 9.16797C44.6253 9.16792 44.9979 9.54086 44.998 10.001V35.001C44.998 35.4612 44.6252 35.834 44.165 35.834H19.165C18.9442 35.8339 18.7324 35.7468 18.5762 35.5908C18.2507 35.2654 18.2508 34.7376 18.5762 34.4121L43.5762 9.41211C43.7324 9.25597 43.9441 9.16797 44.165 9.16797ZM21.1768 34.168H23.332V32.501H24.998V34.168H26.665V32.501H28.332V34.168H29.998V32.501H31.665V34.168H33.332V32.501H34.998V34.168H36.665V32.501H38.332V34.168H39.998V32.501H41.665V30.834H43.332V29.168H41.665V27.501H43.332V25.834H41.665V24.168H43.332V22.501H41.665V20.834H43.332V19.168H41.665V17.501H43.332V15.834H41.665V14.168H43.332V12.0127L21.1768 34.168ZM41.665 34.168H43.332V32.501H41.665V34.168ZM17.501 29.168V30.835H14.168V29.168H17.501ZM39.1641 21.2383C39.6243 21.2382 39.9979 21.6111 39.998 22.0713V30.001C39.9978 30.4609 39.6249 30.8338 39.165 30.834H31.2354C31.0145 30.8339 30.8027 30.746 30.6465 30.5898C30.321 30.2644 30.3211 29.7366 30.6465 29.4111L38.5752 21.4824C38.7313 21.3264 38.9433 21.2384 39.1641 21.2383ZM33.248 29.167H38.3311V24.084L33.248 29.167ZM19.168 27.499H14.168V25.832H19.168V27.499ZM27.5 15C27.721 15 27.9326 15.088 28.0889 15.2441L31.4229 18.5771C31.7481 18.9025 31.748 19.4304 31.4229 19.7559L28.0889 23.0889C27.9326 23.2451 27.721 23.333 27.5 23.333H4.16699C1.86596 23.333 0.000180388 21.468 0 19.167C0 16.8659 1.86585 15 4.16699 15H27.5ZM4.16699 16.667C2.78627 16.667 1.66699 17.7863 1.66699 19.167C1.66717 20.5476 2.78638 21.667 4.16699 21.667H5V16.667H4.16699ZM6.66699 21.667H25.5996L25.1836 20H8.33301V18.333H25.1836L25.5996 16.667H6.66699V21.667ZM26.6924 19.167L27.2852 21.5371L29.6553 19.167L27.2852 16.7969L26.6924 19.167ZM40.835 9.99902H19.168V8.33203H40.835V9.99902ZM38.335 6.66699H21.668V5H38.335V6.66699Z" fill="white"/>
</svg>
